# xmcd
#
# Track frame offsets: 
#        150
#        17288
#        54868
#        85608
#        98330
#        120485
#        141143
#        164650
#        191780
#        211868
#        238478
#        264355
#
# Disc length: 3770 seconds
#
# Revision: 0
# Processed by: cddbd v1.5.2PL0 Copyright (c) Steve Scherf et al.
# Submitted via: ExactAudioCopy v0.95b4
#
DISCID=940eb80c
DTITLE=Buddy Tate and Wild Bill Davis - Broadway
DYEAR=1972
DGENRE=Blues
TTITLE0=Broadway
TTITLE1=Blues in My Heart
TTITLE2=Sugar
TTITLE3=All of Me
TTITLE4=Hello Dolly
TTITLE5=Peg O'My Heart
TTITLE6=Jumpin' With Symphony Sid
TTITLE7=Jenny's Blues
TTITLE8=Tangerine
TTITLE9=Loise
TTITLE10=Blue Lou
TTITLE11=Ooh! Ah! Dee Dee (Take I)
EXTD=
EXTT0=
EXTT1=
EXTT2=
EXTT3=
EXTT4=
EXTT5=
EXTT6=
EXTT7=
EXTT8=
EXTT9=
EXTT10=
EXTT11=
PLAYORDER=
